Coordinates
version=1
nRows=29
nColumns=24
inDegrees=yes

Units are S.I. units (second, meters, Newtons, ...)
Angles are in degrees.

endheader
time	pelvis_tilt	pelvis_list	pelvis_rotation	pelvis_tx	pelvis_ty	pelvis_tz	hip_flexion_r	hip_adduction_r	hip_rotation_r	knee_angle_r	ankle_angle_r	subtalar_angle_r	mtp_angle_r	hip_flexion_l	hip_adduction_l	hip_rotation_l	knee_angle_l	ankle_angle_l	subtalar_angle_l	mtp_angle_l	lumbar_extension	lumbar_bending	lumbar_rotation
      4.29500000	     -9.38089807	    -10.43881704	      0.84062337	     -1.52678017	     -0.03020599	     -0.31111436	     19.82365660	     13.82013199	     -1.71726601	    -23.48269972	      5.87649016	     -1.75511082	     10.64041089	     26.12219894	    -15.53632363	     -4.67644699	    -66.61338860	     -5.21439213	      3.42073958	      8.18171174	     10.12302221	      9.67242010	     -6.47066851
      4.30000000	     -9.28882293	    -10.10073629	      0.77410279	     -1.52084811	     -0.02915465	     -0.31075979	     19.03154160	     13.59485040	     -1.33069645	    -23.08899110	      6.03250668	     -1.92303011	     10.35527804	     26.73097671	    -15.16379677	     -4.85737634	    -66.16273812	     -4.68466656	      3.70358931	      8.37976668	     10.04901140	      9.33032321	     -6.26433802
      4.30500000	     -9.13940835	     -9.80908518	      0.68697434	     -1.51490046	     -0.02811446	     -0.31038310	     18.13942986	     13.43856870	     -0.78008284	    -22.64145534	      6.22112929	     -2.11603035	      9.91254014	     27.26259076	    -14.87260350	     -5.09281743	    -65.65980676	     -4.14403686	      3.99991227	      8.51588731	      9.91434253	      9.04974950	     -6.04537852
      4.31000000	     -9.02783661	     -9.51396959	      0.63285666	     -1.50897616	     -0.02712627	     -0.31006174	     17.29638841	     13.24721769	     -0.34844665	    -22.19268654	      6.40841634	     -2.27126017	      9.37302226	     27.83414339	    -14.54608753	     -5.28617500	    -65.08974822	     -3.60870316	      4.30946817	      8.52028147	      9.82599748	      8.75375660	     -5.87245766
      4.31500000	     -8.96627317	     -9.21992653	      0.55405765	     -1.50312959	     -0.02625366	     -0.30976975	     16.53431641	     13.02763913	     -0.03025184	    -21.76145285	      6.55843667	     -2.31629543	      9.19317786	     28.44059444	    -14.21193891	     -5.46940322	    -64.45057502	     -3.06945008	      4.64224656	      8.59782981	      9.77693916	      8.46938783	     -5.65520308
      4.32000000	     -8.87082816	     -8.94222543	      0.49243202	     -1.49725924	     -0.02538392	     -0.30955365	     15.71006343	     12.81850154	      0.32838313	    -21.28245274	      6.68165893	     -2.42131384	      8.95537167	     28.99417193	    -13.89080749	     -5.66689034	    -63.74250576	     -2.54573110	      4.92553257	      8.56498378	      9.70140949	      8.21619329	     -5.46748990
      4.32500000	     -8.72021614	     -8.73389126	      0.43073382	     -1.49136083	     -0.02453927	     -0.30929125	     14.78387262	     12.69884831	      0.80007279	    -20.73713339	      6.82186862	     -2.58025531	      8.44222537	     29.48687943	    -13.65860653	     -5.86689968	    -63.01467990	     -1.94682869	      5.20375074	      8.17310585	      9.56730064	      8.02025845	     -5.30903339
      4.33000000	     -8.65500236	     -8.48384410	      0.36246399	     -1.48555200	     -0.02381517	     -0.30910842	     14.00270439	     12.49419112	      1.07595487	    -20.25428664	      6.92989885	     -2.62372899	      8.25016575	     30.04086960	    -13.34857129	     -6.02800276	    -62.18030579	     -1.43459183	      5.42696880	      8.03320453	      9.51316279	      7.79200980	     -5.09375681
      4.33500000	     -8.51343342	     -8.27940097	      0.31472786	     -1.47971018	     -0.02308130	     -0.30898590	     13.09160601	     12.34162104	      1.46580751	    -19.68873658	      7.02272008	     -2.75945744	      7.95136616	     30.50610657	    -13.08692663	     -6.19128597	    -61.30991882	     -0.91548955	      5.59042961	      7.63442697	      9.38224232	      7.62219289	     -4.89928406
      4.34000000	     -8.40305878	     -8.09136101	      0.27055041	     -1.47387946	     -0.02244838	     -0.30890317	     12.22452966	     12.19484903	      1.80874329	    -19.13475153	      7.09735332	     -2.90285769	      7.63236044	     30.98707995	    -12.83120867	     -6.33802950	    -60.38370465	     -0.35253567	      5.72409669	      7.10889503	      9.28634571	      7.46822124	     -4.73856042
      4.34500000	     -8.30301626	     -7.91883099	      0.23010709	     -1.46807668	     -0.02189346	     -0.30886567	     11.37519306	     12.05411541	      2.13361661	    -18.58550136	      7.16022475	     -3.04004011	      7.32250120	     31.46051334	    -12.57982035	     -6.46419234	    -59.39823834	      0.21973719	      5.80735649	      6.51241081	      9.19733307	      7.33201260	     -4.59689685
      4.35000000	     -8.20775470	     -7.75675657	      0.19388663	     -1.46226615	     -0.02139929	     -0.30885709	     10.52728269	     11.91828125	      2.44143723	    -18.02490064	      7.21232389	     -3.19861869	      6.99395275	     31.91858727	    -12.33907318	     -6.58506171	    -58.36038425	      0.79814371	      5.89817713	      5.80478774	      9.11587431	      7.21197967	     -4.45862440
      4.35500000	     -8.11941129	     -7.59140237	      0.16798184	     -1.45649749	     -0.02095418	     -0.30889338	      9.69653184	     11.76798181	      2.72079333	    -17.47109058	      7.24459294	     -3.35189469	      6.71650007	     32.36199939	    -12.07850339	     -6.68403968	    -57.24585104	      1.29078497	      5.87896936	      5.15541587	      9.03350902	      7.08607383	     -4.29917687
      4.36000000	     -8.02119592	     -7.44081406	      0.14025163	     -1.45071433	     -0.02055926	     -0.30894429	      8.85018575	     11.63239414	      3.01545955	    -16.90948165	      7.26005446	     -3.53886504	      6.39184394	     32.76840957	    -11.84128463	     -6.78582216	    -56.08633143	      1.85192008	      5.92547980	      4.35025771	      8.94201931	      6.97842106	     -4.15981107
      4.36500000	     -7.94221173	     -7.28014633	      0.12995249	     -1.44498336	     -0.02023142	     -0.30904784	      8.03728275	     11.47423901	      3.25543481	    -16.35440457	      7.28637925	     -3.71632219	      6.11635353	     33.17953370	    -11.57544209	     -6.86857672	    -54.85939311	      2.29658469	      5.85539922	      3.61225840	      8.86194735	      6.86542838	     -3.98490695
      4.37000000	     -7.85041570	     -7.12714397	      0.11079793	     -1.43923556	     -0.01993221	     -0.30915940	      7.21396565	     11.32270556	      3.51381468	    -15.81133842	      7.29068979	     -3.90557053	      5.81271092	     33.53702747	    -11.32383537	     -6.94684507	    -53.57028587	      2.81298275	      5.86801565	      2.77634656	      8.76955480	      6.75836996	     -3.84052896
      4.37500000	     -7.77623186	     -6.98331468	      0.09338703	     -1.43352269	     -0.01970417	     -0.30928622	      6.42304213	     11.17512255	      3.73504813	    -15.28318668	      7.29637799	     -4.07109655	      5.51583576	     33.89427837	    -11.08005777	     -7.01337496	    -52.23343042	      3.31801846	      5.89925805	      1.91068804	      8.68927495	      6.66267099	     -3.68809474
      4.38000000	     -7.74249442	     -6.82241211	      0.08890136	     -1.42777174	     -0.01954313	     -0.30942586	      5.69115914	     11.00012134	      3.85567731	    -14.77486007	      7.29735961	     -4.21032641	      5.28281662	     34.26193198	    -10.82797017	     -7.12356727	    -50.81588820	      3.70906624	      5.90732921	      1.22708877	      8.66339621	      6.54106326	     -3.57452108
      4.38500000	     -7.63561387	     -6.68703421	      0.07031478	     -1.42211287	     -0.01937282	     -0.30963549	      4.88127401	     10.84811475	      4.07860718	    -14.26873255	      7.30156654	     -4.34271754	      5.00688482	     34.52379282	    -10.57957888	     -7.14009227	    -49.36963656	      4.24198708	      6.05736320	      0.30676523	      8.52950322	      6.46914562	     -3.39069100
      4.39000000	     -7.59368847	     -6.55223733	      0.05814915	     -1.41643068	     -0.01931741	     -0.30982651	      4.16339100	     10.69207744	      4.21204120	    -13.79834038	      7.32516756	     -4.42521458	      4.77245484	     34.83099737	    -10.33825353	     -7.17329699	    -47.86934087	      4.73582567	      6.25252059	     -0.58233865	      8.47709431	      6.38584879	     -3.24239881
      4.39500000	     -7.56607806	     -6.41664250	      0.04115445	     -1.41077152	     -0.01931063	     -0.31003507	      3.47921126	     10.52678959	      4.28851662	    -13.34957228	      7.34919466	     -4.44987148	      4.61430906	     35.12138486	    -10.09784554	     -7.19886555	    -46.30317607	      5.15169535	      6.50257042	     -1.28293468	      8.43070863	      6.29968398	     -3.09921362
      4.40000000	     -7.53173963	     -6.28461046	      0.02468980	     -1.40512753	     -0.01934102	     -0.31025823	      2.80429228	     10.36086006	      4.34404898	    -12.92840637	      7.37882847	     -4.43690343	      4.50590161	     35.37332098	     -9.85774130	     -7.20246150	    -44.68654966	      5.56254937	      6.84770261	     -1.98471571	      8.37376422	      6.22240539	     -2.94652951
      4.40500000	     -7.65942504	     -6.19651231	      0.01221722	     -1.39954510	     -0.01961198	     -0.31048199	      2.35133635	     10.24006549	      4.32317702	    -12.57900373	      7.40324187	     -4.39197078	      4.47410807	     35.79679438	     -9.64963580	     -7.13477606	    -43.01353328	      5.77721845	      7.24914690	     -2.17254057	      8.49002946	      6.18121153	     -2.85134690
      4.41000000	     -7.50747784	     -6.01375667	     -0.01969262	     -1.39390109	     -0.01954069	     -0.31076432	      1.56580913	     10.00221267	      4.35015371	    -12.18551561	      7.44938935	     -4.25344565	      4.48795130	     35.82224226	     -9.36446475	     -7.16577768	    -41.26598536	      6.12970425	      7.72110351	     -2.92922102	      8.29043742	      6.06181650	     -2.62728887
      4.41500000	     -7.64492025	     -5.91806265	     -0.02049394	     -1.38832687	     -0.01988926	     -0.31105760	      1.15382780	      9.86497116	      4.30949359	    -11.89137710	      7.47358702	     -4.17376830	      4.50103775	     36.19509117	     -9.13624005	     -7.07296570	    -39.51008876	      6.27754358	      8.30676507	     -3.17201823	      8.41215444	      6.01517589	     -2.54140413
      4.42000000	     -7.51683117	     -5.73394848	     -0.08227074	     -1.38271129	     -0.01991694	     -0.31132594	      0.44905033	      9.61513300	      4.24234764	    -11.58877711	      7.55616504	     -3.87465802	      4.69532890	     36.18272676	     -8.86379088	     -7.07653000	    -37.69427538	      6.55118132	      8.99455542	     -3.92719155	      8.22569391	      5.89213132	     -2.29030652
      4.42500000	     -7.54112477	     -5.58694506	     -0.10941617	     -1.37711008	     -0.02017884	     -0.31165759	     -0.05476136	      9.40334734	      4.11691994	    -11.34381350	      7.61420782	     -3.59790159	      4.96217163	     36.34390258	     -8.59732356	     -7.00193541	    -35.88180348	      6.72905366	      9.76871419	     -4.62484012	      8.21326268	      5.79825757	     -2.12793616
      4.43000000	     -7.69822575	     -5.48843274	     -0.12426086	     -1.37156840	     -0.02065153	     -0.31197027	     -0.38063829	      9.26180109	      4.08024141	    -11.17021202	      7.64778209	     -3.50307078	      5.02711281	     36.64496526	     -8.35776741	     -6.81383777	    -34.03225636	      6.65775131	     10.52122989	     -4.84435050	      8.34336930	      5.73833530	     -2.02828740
      4.43500000	     -7.62389121	     -5.27987563	     -0.21335981	     -1.36594978	     -0.02081333	     -0.31229612	     -0.94890043	      8.97021044	      3.95297359	    -11.00979520	      7.75958768	     -3.06488198	      5.36344297	     36.59449362	     -8.06886262	     -6.78275597	    -32.12892189	      6.61630748	     11.33588534	     -5.37376769	      8.20393424	      5.59657691	     -1.75342379
